<mxfile host="Electron" agent="Mozilla/5.0 (Windows NT 10.0; Win64; x64) AppleWebKit/537.36 (KHTML, like Gecko) draw.io/24.7.17 Chrome/128.0.6613.36 Electron/32.0.1 Safari/537.36" version="24.7.17">
  <diagram id="C5RBs43oDa-KdzZeNtuy" name="Page-1">
    <mxGraphModel dx="410" dy="719" grid="1" gridSize="10" guides="1" tooltips="1" connect="1" arrows="1" fold="1" page="1" pageScale="1" pageWidth="827" pageHeight="1169" math="0" shadow="0">
      <root>
        <mxCell id="WIyWlLk6GJQsqaUBKTNV-0" />
        <mxCell id="WIyWlLk6GJQsqaUBKTNV-1" parent="WIyWlLk6GJQsqaUBKTNV-0" />
        <mxCell id="qsiT1fmik6lmsFwetZ6A-4" style="edgeStyle=orthogonalEdgeStyle;rounded=0;orthogonalLoop=1;jettySize=auto;html=1;entryX=0.5;entryY=0;entryDx=0;entryDy=0;" edge="1" parent="WIyWlLk6GJQsqaUBKTNV-1" source="qsiT1fmik6lmsFwetZ6A-0" target="qsiT1fmik6lmsFwetZ6A-1">
          <mxGeometry relative="1" as="geometry" />
        </mxCell>
        <mxCell id="qsiT1fmik6lmsFwetZ6A-0" value="START" style="strokeWidth=2;html=1;shape=mxgraph.flowchart.start_2;whiteSpace=wrap;" vertex="1" parent="WIyWlLk6GJQsqaUBKTNV-1">
          <mxGeometry x="364" y="20" width="100" height="100" as="geometry" />
        </mxCell>
        <mxCell id="qsiT1fmik6lmsFwetZ6A-7" style="edgeStyle=orthogonalEdgeStyle;rounded=0;orthogonalLoop=1;jettySize=auto;html=1;entryX=0.5;entryY=0;entryDx=0;entryDy=0;" edge="1" parent="WIyWlLk6GJQsqaUBKTNV-1" source="qsiT1fmik6lmsFwetZ6A-1">
          <mxGeometry relative="1" as="geometry">
            <mxPoint x="413" y="290" as="targetPoint" />
          </mxGeometry>
        </mxCell>
        <mxCell id="qsiT1fmik6lmsFwetZ6A-1" value="int numbersasked = 3&lt;div&gt;int lcm = new LCM();&lt;/div&gt;&lt;div&gt;int mcd = 0&lt;/div&gt;" style="rounded=1;whiteSpace=wrap;html=1;absoluteArcSize=1;arcSize=14;strokeWidth=2;" vertex="1" parent="WIyWlLk6GJQsqaUBKTNV-1">
          <mxGeometry x="364" y="150" width="100" height="100" as="geometry" />
        </mxCell>
        <mxCell id="qsiT1fmik6lmsFwetZ6A-21" style="edgeStyle=orthogonalEdgeStyle;rounded=0;orthogonalLoop=1;jettySize=auto;html=1;entryX=0.5;entryY=0;entryDx=0;entryDy=0;" edge="1" parent="WIyWlLk6GJQsqaUBKTNV-1" source="qsiT1fmik6lmsFwetZ6A-8" target="qsiT1fmik6lmsFwetZ6A-20">
          <mxGeometry relative="1" as="geometry" />
        </mxCell>
        <mxCell id="qsiT1fmik6lmsFwetZ6A-8" value="Please type a positive number:" style="html=1;strokeWidth=2;shape=manualInput;whiteSpace=wrap;rounded=1;size=26;arcSize=11;" vertex="1" parent="WIyWlLk6GJQsqaUBKTNV-1">
          <mxGeometry x="363" y="280" width="100" height="60" as="geometry" />
        </mxCell>
        <mxCell id="qsiT1fmik6lmsFwetZ6A-23" style="edgeStyle=orthogonalEdgeStyle;rounded=0;orthogonalLoop=1;jettySize=auto;html=1;entryX=0.5;entryY=0;entryDx=0;entryDy=0;" edge="1" parent="WIyWlLk6GJQsqaUBKTNV-1" source="qsiT1fmik6lmsFwetZ6A-20" target="qsiT1fmik6lmsFwetZ6A-22">
          <mxGeometry relative="1" as="geometry" />
        </mxCell>
        <mxCell id="qsiT1fmik6lmsFwetZ6A-20" value="Int num1=&lt;div&gt;keyboard.nextInt();&lt;/div&gt;" style="rounded=1;whiteSpace=wrap;html=1;absoluteArcSize=1;arcSize=14;strokeWidth=2;" vertex="1" parent="WIyWlLk6GJQsqaUBKTNV-1">
          <mxGeometry x="363" y="370" width="100" height="100" as="geometry" />
        </mxCell>
        <mxCell id="qsiT1fmik6lmsFwetZ6A-26" style="edgeStyle=orthogonalEdgeStyle;rounded=0;orthogonalLoop=1;jettySize=auto;html=1;entryX=0.5;entryY=0;entryDx=0;entryDy=0;" edge="1" parent="WIyWlLk6GJQsqaUBKTNV-1" source="qsiT1fmik6lmsFwetZ6A-22" target="qsiT1fmik6lmsFwetZ6A-25">
          <mxGeometry relative="1" as="geometry" />
        </mxCell>
        <mxCell id="qsiT1fmik6lmsFwetZ6A-22" value="Introduce a second positive number:" style="html=1;strokeWidth=2;shape=manualInput;whiteSpace=wrap;rounded=1;size=26;arcSize=11;" vertex="1" parent="WIyWlLk6GJQsqaUBKTNV-1">
          <mxGeometry x="363" y="500" width="100" height="60" as="geometry" />
        </mxCell>
        <mxCell id="qsiT1fmik6lmsFwetZ6A-28" style="edgeStyle=orthogonalEdgeStyle;rounded=0;orthogonalLoop=1;jettySize=auto;html=1;entryX=0.5;entryY=0;entryDx=0;entryDy=0;" edge="1" parent="WIyWlLk6GJQsqaUBKTNV-1" source="qsiT1fmik6lmsFwetZ6A-25" target="qsiT1fmik6lmsFwetZ6A-27">
          <mxGeometry relative="1" as="geometry" />
        </mxCell>
        <mxCell id="qsiT1fmik6lmsFwetZ6A-25" value="Int num2=&lt;div&gt;keyboard.nextInt();&lt;/div&gt;" style="rounded=1;whiteSpace=wrap;html=1;absoluteArcSize=1;arcSize=14;strokeWidth=2;" vertex="1" parent="WIyWlLk6GJQsqaUBKTNV-1">
          <mxGeometry x="363" y="600" width="100" height="100" as="geometry" />
        </mxCell>
        <mxCell id="qsiT1fmik6lmsFwetZ6A-30" style="edgeStyle=orthogonalEdgeStyle;rounded=0;orthogonalLoop=1;jettySize=auto;html=1;entryX=0.5;entryY=0;entryDx=0;entryDy=0;" edge="1" parent="WIyWlLk6GJQsqaUBKTNV-1" source="qsiT1fmik6lmsFwetZ6A-27" target="qsiT1fmik6lmsFwetZ6A-29">
          <mxGeometry relative="1" as="geometry" />
        </mxCell>
        <mxCell id="qsiT1fmik6lmsFwetZ6A-27" value="Introduce a third and final positive number:" style="html=1;strokeWidth=2;shape=manualInput;whiteSpace=wrap;rounded=1;size=26;arcSize=11;" vertex="1" parent="WIyWlLk6GJQsqaUBKTNV-1">
          <mxGeometry x="363" y="740" width="100" height="60" as="geometry" />
        </mxCell>
        <mxCell id="qsiT1fmik6lmsFwetZ6A-29" value="Int num3=&lt;div&gt;keyboard.nextInt();&lt;/div&gt;" style="rounded=1;whiteSpace=wrap;html=1;absoluteArcSize=1;arcSize=14;strokeWidth=2;" vertex="1" parent="WIyWlLk6GJQsqaUBKTNV-1">
          <mxGeometry x="363" y="830" width="100" height="100" as="geometry" />
        </mxCell>
      </root>
    </mxGraphModel>
  </diagram>
</mxfile>
